# xmcd CD database file
#
# Track frame offsets:
#	150
#	11744
#	24962
#	41280
#	58867
#	73128
#	89361
#	100833
#
# Disc length: 1597 seconds
#
# Revision: 0
# Processed by: cddbd v1.5.2PL0 Copyright (c) Steve Scherf et al.
# Submitted via: CDex 2.10
#
DISCID=60063b08
DTITLE=The Mezcaltones - Second
DYEAR=2018
DGENRE=Country
TTITLE0=Spaghetti Medley
TTITLE1=I Know My Rider
TTITLE2=Humble Pride
TTITLE3=Short Change Hero
TTITLE4=Howlin' at the Moon
TTITLE5=Na Na Na
TTITLE6=And the Address
TTITLE7=Let Love Reign
EXTD=YEAR: 2018
EXTT0=
EXTT1=
EXTT2=
EXTT3=
EXTT4=
EXTT5=
EXTT6=
EXTT7=
PLAYORDER=
